<svg width="32" height="32" viewBox="0 0 32 32" fill="none" xmlns="http://www.w3.org/2000/svg">
<path fill-rule="evenodd" clip-rule="evenodd" d="M22.8266 15.6261C22.1893 15.6261 21.6719 15.1075 21.6719 14.4715C21.6719 13.8341 22.1893 13.3168 22.8266 13.3168C23.4639 13.3168 23.9812 13.8341 23.9812 14.4715C23.9812 15.1075 23.4639 15.6261 22.8266 15.6261ZM20.5479 19.4661C19.9106 19.4661 19.3932 18.9475 19.3932 18.3101C19.3932 17.6741 19.9106 17.1555 20.5479 17.1555C21.1852 17.1555 21.7026 17.6741 21.7026 18.3101C21.7026 18.9475 21.1852 19.4661 20.5479 19.4661ZM19.7639 24.2115H12.2373C11.6853 24.2115 11.2373 23.7635 11.2373 23.2115C11.2373 22.6595 11.6853 22.2115 12.2373 22.2115H19.7639C20.3159 22.2115 20.7639 22.6595 20.7639 23.2115C20.7639 23.7635 20.3159 24.2115 19.7639 24.2115ZM10.284 18.3101C10.284 17.6741 10.8013 17.1555 11.4386 17.1555C12.076 17.1555 12.5933 17.6741 12.5933 18.3101C12.5933 18.9475 12.076 19.4661 11.4386 19.4661C10.8013 19.4661 10.284 18.9475 10.284 18.3101ZM9.15997 15.6261C8.52264 15.6261 8.0053 15.1075 8.0053 14.4715C8.0053 13.8341 8.52264 13.3168 9.15997 13.3168C9.7973 13.3168 10.3146 13.8341 10.3146 14.4715C10.3146 15.1075 9.7973 15.6261 9.15997 15.6261ZM13.7173 13.3168C14.3546 13.3168 14.8719 13.8341 14.8719 14.4715C14.8719 15.1075 14.3546 15.6261 13.7173 15.6261C13.08 15.6261 12.5626 15.1075 12.5626 14.4715C12.5626 13.8341 13.08 13.3168 13.7173 13.3168ZM15.9932 17.1555C16.6306 17.1555 17.1479 17.6741 17.1479 18.3101C17.1479 18.9475 16.6306 19.4661 15.9932 19.4661C15.3559 19.4661 14.8386 18.9475 14.8386 18.3101C14.8386 17.6741 15.3559 17.1555 15.9932 17.1555ZM18.2692 13.3168C18.9066 13.3168 19.4239 13.8341 19.4239 14.4715C19.4239 15.1075 18.9066 15.6261 18.2692 15.6261C17.6319 15.6261 17.1146 15.1075 17.1146 14.4715C17.1146 13.8341 17.6319 13.3168 18.2692 13.3168ZM21.6386 8.54615H17.1919V8.36081C17.1639 6.40481 15.5573 4.82348 13.6133 4.82348H12.2693C11.904 4.82348 11.604 4.52881 11.6013 4.16348C11.596 3.61148 11.132 3.15948 10.592 3.17281C10.04 3.17815 9.59597 3.63015 9.6013 4.18215C9.61597 5.64481 10.8093 6.82348 12.2586 6.82348H13.5933C14.4026 6.80215 15.1799 7.51948 15.1919 8.37548V8.54615H10.3613C5.9613 8.54615 3.3333 11.1248 3.3333 15.4435V21.9408C3.32664 24.0248 3.95197 25.7581 5.1413 26.9515C6.3653 28.1795 8.1653 28.8275 10.3493 28.8275H21.6386C26.0386 28.8275 28.6666 26.2541 28.6666 21.9435V15.5448C28.6666 11.1621 26.0386 8.54615 21.6386 8.54615Z" fill="url(#paint0_linear_324_687)"/>
<defs>
<linearGradient id="paint0_linear_324_687" x1="5.49996" y1="7" x2="32.5" y2="38.5" gradientUnits="userSpaceOnUse">
<stop stop-color="#4CA6FF"/>
<stop offset="1" stop-color="#F4DC73"/>
</linearGradient>
</defs>
</svg>
