<svg width="64" height="64" viewBox="0 0 64 64" fill="none" xmlns="http://www.w3.org/2000/svg">
<path fill-rule="evenodd" clip-rule="evenodd" d="M45.4501 26.0109L29.8947 41.5663C29.3996 42.0615 28.7562 42.3074 28.1095 42.3074C27.4594 42.3074 26.816 42.0615 26.3208 41.5663L18.5432 33.7886C17.5562 32.8017 17.5562 31.2017 18.5432 30.2147C19.5301 29.2278 21.1267 29.2278 22.1137 30.2147L28.1095 36.2072L41.8762 22.4371C42.8632 21.4501 44.4632 21.4501 45.4501 22.4371C46.4371 23.424 46.4371 25.024 45.4501 26.0109ZM32 0C14.3562 0 0 14.3562 0 32C0 49.6472 14.3562 64 32 64C49.6438 64 64 49.6472 64 32C64 14.3562 49.6438 0 32 0Z" fill="#4DD67B"/>
</svg>
