<svg width="80" height="80" viewBox="0 0 80 80" fill="none" xmlns="http://www.w3.org/2000/svg">
<path fill-rule="evenodd" clip-rule="evenodd" d="M29.5785 58.0033C32.5169 60.747 41.1861 56.2323 48.9441 47.9233C56.6984 39.614 60.6068 30.6562 57.6684 27.9124C54.7301 25.1686 46.0574 29.6832 38.3027 37.9923C30.545 46.3017 26.6401 55.2597 29.5785 58.0033Z" stroke="#F4DC73" stroke-width="5" stroke-linecap="round" stroke-linejoin="round"/>
<path d="M10.6965 22.9166H10.7744M19.701 57.1076H19.7788" stroke="#F4DC73" stroke-width="5" stroke-linecap="round" stroke-linejoin="round"/>
<path d="M58.1766 28.5677L69.8879 65.3464C70.4329 67.0651 68.8696 68.7127 67.1213 68.2554L30.677 58.6651" stroke="#F4DC73" stroke-width="5" stroke-linecap="round" stroke-linejoin="round"/>
<path d="M51.2109 64.0636C53.6239 62.3253 56.1343 60.0743 58.5473 57.5026C61.0866 54.7653 63.2109 51.9663 64.8196 49.3619" stroke="#F4DC73" stroke-width="5" stroke-linecap="round" stroke-linejoin="round"/>
<path d="M21.4908 46.9367C21.4908 46.9367 15.3189 46.46 10 52.207" stroke="#F4DC73" stroke-width="5" stroke-linecap="round" stroke-linejoin="round"/>
<path fill-rule="evenodd" clip-rule="evenodd" d="M31.9077 19.9008C31.9077 22.0835 30.1369 23.8544 27.9542 23.8544C25.7715 23.8544 24.0039 22.0835 24.0039 19.9008C24.0039 17.7181 25.7715 15.9506 27.9542 15.9506C30.1369 15.9506 31.9077 17.7181 31.9077 19.9008Z" stroke="#F4DC73" stroke-width="5" stroke-linecap="round" stroke-linejoin="round"/>
<path d="M42.4381 42.2691C42.4381 42.2691 31.6187 31.1058 15.0457 35.8247" stroke="#F4DC73" stroke-width="5" stroke-linecap="round" stroke-linejoin="round"/>
<path d="M46.1693 11.6666C46.1693 11.6666 39.9037 20.245 46.844 30.5586" stroke="#F4DC73" stroke-width="5" stroke-linecap="round" stroke-linejoin="round"/>
</svg>
