<svg width="18" height="18" viewBox="0 0 18 18" fill="none" xmlns="http://www.w3.org/2000/svg">
<path d="M0.421875 0H1.37109C1.61719 0 1.79297 0.210938 1.79297 0.457031L1.72266 3.90234C3.26953 1.54688 5.97656 0 9 0.0351562C13.8164 0.0351562 17.7188 3.97266 17.7188 8.75391C17.6836 13.5703 13.7812 17.4375 9 17.4375C6.75 17.4375 4.67578 16.5938 3.12891 15.2227C2.95312 15.0469 2.95312 14.7656 3.12891 14.5898L3.83203 13.8867C3.97266 13.7461 4.21875 13.7461 4.39453 13.8867C5.625 14.9766 7.20703 15.6094 9 15.6094C12.7969 15.6094 15.8906 12.5508 15.8906 8.71875C15.8906 4.92188 12.7969 1.82812 9 1.82812C6.1875 1.82812 3.79688 3.51562 2.70703 5.90625L7.13672 5.80078C7.38281 5.80078 7.59375 5.97656 7.59375 6.22266V7.17188C7.59375 7.41797 7.38281 7.59375 7.17188 7.59375H0.421875C0.175781 7.59375 0 7.41797 0 7.17188V0.421875C0 0.210938 0.175781 0 0.421875 0Z" fill="white"/>
</svg>
